<svg width="30" height="30" viewBox="0 0 30 30" fill="none" xmlns="http://www.w3.org/2000/svg">
<rect width="30" height="30" rx="5" fill="#7A85A6"/>
<g clip-path="url(#clip0_2012_12458)">
<path d="M16.5508 16.0685H9.94453V13.3677H16.5508C16.9367 13.3677 17.2051 13.4371 17.3397 13.5585C17.4744 13.6798 17.5578 13.9049 17.5578 14.2337V15.2035C17.5578 15.5499 17.4744 15.775 17.3397 15.8963C17.2051 16.0177 16.9367 16.0695 16.5508 16.0695V16.0685ZM17.0041 10.8214H7.14282V22.3715H9.94453V18.6137H15.1078L17.5578 22.3715H20.6951L17.9939 18.5961C18.9898 18.4437 19.437 18.1284 19.8058 17.6087C20.1746 17.0891 20.3595 16.2583 20.3595 15.1495V14.2835C20.3595 13.6259 20.2922 13.1063 20.1746 12.708C20.057 12.3097 19.856 11.9633 19.5706 11.6521C19.2691 11.3576 18.9335 11.1501 18.5305 11.0112C18.1276 10.8898 17.6241 10.8203 17.0041 10.8203V10.8214Z" fill="#EFF1F9"/>
<path d="M22.848 10.8204C24.0368 10.8204 25.0004 9.83709 25.0004 8.62408C25.0004 7.41107 24.0368 6.42773 22.848 6.42773C21.6592 6.42773 20.6956 7.41107 20.6956 8.62408C20.6956 9.83709 21.6592 10.8204 22.848 10.8204Z" fill="#EFF1F9"/>
</g>
<defs>
<clipPath id="clip0_2012_12458">
<rect width="17.8571" height="15.9439" fill="white" transform="translate(7.14282 6.42773)"/>
</clipPath>
</defs>
</svg>
