<svg width="30" height="30" viewBox="0 0 30 30" fill="none" xmlns="http://www.w3.org/2000/svg">
<rect width="30" height="30" rx="5" fill="#7A85A6"/>
<path d="M7.48709 15.0043L11.0808 16.2248L19.6138 11.0083C19.7376 10.9329 19.8643 11.1009 19.7577 11.1991L13.2979 17.145L13.058 20.4737C13.054 20.5294 13.0672 20.585 13.0956 20.6332C13.124 20.6813 13.1664 20.7197 13.2171 20.7431C13.2678 20.7666 13.3245 20.7741 13.3796 20.7647C13.4347 20.7552 13.4856 20.7292 13.5256 20.6902L15.5144 18.7343L19.1506 21.4865C19.5423 21.7834 20.1099 21.5741 20.2153 21.0942L22.7471 9.59866C22.8917 8.94296 22.2488 8.38939 21.6221 8.62935L7.46923 14.049C7.02503 14.2192 7.03731 14.8514 7.48709 15.0043Z" fill="#EFF1F9"/>
</svg>
