<svg width="30" height="30" viewBox="0 0 30 30" fill="none" xmlns="http://www.w3.org/2000/svg">
<rect width="30" height="30" rx="5" fill="#7A85A6"/>
<g clip-path="url(#clip0_2012_12453)">
<path d="M23.4768 19.4629C23.4552 19.4163 23.4351 19.3776 23.4163 19.3467C23.1065 18.7887 22.5144 18.1038 21.6405 17.2918L21.622 17.2732L21.6128 17.264L21.6034 17.2547H21.5941C21.1974 16.8766 20.9463 16.6224 20.8411 16.4922C20.6486 16.2442 20.6055 15.9933 20.7107 15.739C20.785 15.5468 21.0641 15.1411 21.5475 14.5211C21.8017 14.1926 22.0031 13.9293 22.1517 13.7309C23.2241 12.3052 23.6891 11.3942 23.5464 10.9974L23.491 10.9047C23.4538 10.8489 23.3577 10.7979 23.203 10.7513C23.0478 10.7048 22.8495 10.6971 22.6077 10.7281L19.9301 10.7466C19.8868 10.7312 19.8248 10.7327 19.7441 10.7513L19.6232 10.7793L19.5766 10.8025L19.5396 10.8305C19.5086 10.849 19.4745 10.8815 19.4373 10.928C19.4003 10.9744 19.3693 11.0288 19.3446 11.0907C19.053 11.8407 18.7216 12.538 18.3496 13.1826C18.1203 13.567 17.9096 13.9001 17.7173 14.1821C17.5252 14.4641 17.364 14.6718 17.2339 14.805C17.1037 14.9383 16.9861 15.045 16.8805 15.1257C16.7751 15.2064 16.6947 15.2405 16.639 15.228C16.5831 15.2156 16.5305 15.2032 16.4807 15.1908C16.394 15.135 16.3242 15.0591 16.2717 14.963C16.2188 14.8669 16.1833 14.746 16.1647 14.6004C16.1462 14.4546 16.1352 14.3292 16.1321 14.2238C16.1292 14.1185 16.1306 13.9696 16.1368 13.7775C16.1433 13.5853 16.1462 13.4552 16.1462 13.387C16.1462 13.1514 16.1508 12.8958 16.16 12.6199C16.1694 12.3441 16.177 12.1256 16.1833 11.9646C16.1896 11.8034 16.1926 11.6329 16.1926 11.4532C16.1926 11.2734 16.1816 11.1324 16.16 11.0301C16.1384 10.9277 16.1057 10.8279 16.0626 10.7326C16.0191 10.6365 15.9555 10.5622 15.872 10.5094C15.7884 10.4567 15.6843 10.4149 15.5606 10.3839C15.232 10.3095 14.8137 10.2693 14.3053 10.263C13.1525 10.2507 12.4117 10.3251 12.0832 10.4863C11.953 10.5544 11.8353 10.6474 11.7299 10.7651C11.6183 10.9015 11.6028 10.9759 11.6833 10.9882C12.0553 11.0439 12.3186 11.1772 12.4736 11.3879L12.5294 11.4996C12.5729 11.5802 12.6163 11.7228 12.6597 11.9273C12.703 12.1318 12.731 12.358 12.7433 12.6058C12.7742 13.0584 12.7742 13.4458 12.7433 13.7681C12.7123 14.0904 12.683 14.3414 12.655 14.5212C12.627 14.7009 12.5852 14.8466 12.5294 14.9581C12.4736 15.0697 12.4364 15.1379 12.4178 15.1626C12.3992 15.1874 12.3837 15.203 12.3714 15.2091C12.2913 15.24 12.2062 15.2558 12.1203 15.2557C12.0335 15.2557 11.9282 15.2123 11.8042 15.1254C11.6803 15.0386 11.5517 14.9194 11.4184 14.7675C11.2851 14.6156 11.1348 14.4033 10.9674 14.1306C10.8001 13.8579 10.6266 13.5356 10.4468 13.1637L10.2981 12.894C10.2051 12.7205 10.0781 12.4679 9.91693 12.1363C9.75567 11.8047 9.61314 11.4838 9.48923 11.1739C9.4397 11.0437 9.36529 10.9447 9.26613 10.8765L9.21959 10.8485C9.18866 10.8237 9.139 10.7975 9.07087 10.7695C9.00209 10.7413 8.93035 10.7211 8.85702 10.7091L6.30951 10.7276C6.04919 10.7276 5.87256 10.7866 5.77955 10.9043L5.74233 10.9601C5.72373 10.9911 5.71436 11.0407 5.71436 11.1089C5.71436 11.1771 5.73295 11.2608 5.77017 11.3599C6.14206 12.2339 6.54648 13.0768 6.98344 13.8888C7.42039 14.7008 7.8001 15.3548 8.12232 15.8504C8.44462 16.3463 8.77313 16.8144 9.10786 17.2543C9.4426 17.6944 9.66417 17.9765 9.77258 18.1004C9.88111 18.2245 9.96637 18.3173 10.0283 18.3793L10.2608 18.6024C10.4096 18.7512 10.628 18.9294 10.9162 19.137C11.2045 19.3447 11.5237 19.5492 11.8739 19.7508C12.2242 19.9521 12.6317 20.1164 13.0966 20.2434C13.5615 20.3706 14.0139 20.4216 14.454 20.397H15.5233C15.7401 20.3783 15.9044 20.3101 16.0161 20.1924L16.053 20.1458C16.0779 20.1088 16.1012 20.0513 16.1227 19.974C16.1445 19.8965 16.1553 19.8112 16.1553 19.7183C16.1489 19.4518 16.1692 19.2117 16.2156 18.9979C16.2619 18.7841 16.3147 18.6229 16.3738 18.5144C16.4328 18.406 16.4995 18.3144 16.5736 18.2403C16.6479 18.1659 16.7009 18.1209 16.732 18.1054C16.7628 18.0898 16.7875 18.0792 16.8061 18.0729C16.9548 18.0233 17.1299 18.0713 17.3315 18.2171C17.533 18.3627 17.722 18.5426 17.8988 18.7564C18.0754 18.9703 18.2877 19.2103 18.5356 19.4768C18.7836 19.7434 19.0005 19.9415 19.1864 20.0719L19.3722 20.1835C19.4964 20.2579 19.6575 20.3261 19.8559 20.3881C20.054 20.45 20.2275 20.4655 20.3764 20.4345L22.7565 20.3974C22.9919 20.3974 23.1751 20.3584 23.305 20.2811C23.4352 20.2036 23.5126 20.1183 23.5375 20.0254C23.5624 19.9325 23.5637 19.827 23.5422 19.7092C23.5202 19.5916 23.4985 19.5093 23.4768 19.4629Z" fill="#EFF1F9"/>
</g>
<defs>
<clipPath id="clip0_2012_12453">
<rect width="17.8571" height="17.8571" fill="white" transform="translate(5.71436 6.42773)"/>
</clipPath>
</defs>
</svg>
