<svg width="16" height="16" viewBox="0 0 16 16" fill="none" xmlns="http://www.w3.org/2000/svg">
<path d="M2.6875 13H2C1.44772 13 1 12.5523 1 12V2C1 1.44772 1.44772 1 2 1H10C10.5523 1 11 1.44772 11 2V7V11M6.625 13H9.5" stroke="#273C50" stroke-width="1.5"/>
<path d="M6.5 13C6.5 14.1046 5.60457 15 4.5 15C3.39543 15 2.5 14.1046 2.5 13C2.5 11.8954 3.39543 11 4.5 11C5.60457 11 6.5 11.8954 6.5 13Z" stroke="#273C50" stroke-width="1.5"/>
<path d="M13 13C13 14.1046 12.1046 15 11 15C9.89543 15 9 14.1046 9 13C9 11.8954 9.89543 11 11 11C12.1046 11 13 11.8954 13 13Z" stroke="#273C50" stroke-width="1.5"/>
<path d="M10.5 5.5H11.7082C12.3986 5.5 13.0402 5.85609 13.4054 6.44198L14.6972 8.51431C14.8951 8.83173 15 9.19828 15 9.57233V12C15 12.5523 14.5523 13 14 13H13.5" stroke="#273C50" stroke-width="1.5"/>
</svg>
