<svg width="16" height="16" viewBox="0 0 16 16" fill="none" xmlns="http://www.w3.org/2000/svg">
<path d="M4.79712 14.1829L2.83017 14.9566C2.49682 15.1032 2.12126 14.8604 2.12604 14.5014V11.7736C2.12604 11.6785 2.09759 11.5857 2.04663 11.5049C1.38309 10.4528 1 9.21174 1 7.88274C1 4.08151 4.13401 1 8 1C11.866 1 15 4.08151 15 7.88274C15 11.684 11.866 14.7655 8 14.7655C7.00399 14.7655 6.05656 14.5609 5.1988 14.1923C5.07115 14.1374 4.92647 14.132 4.79712 14.1829Z" stroke="#273C50" stroke-width="1.5"/>
<path d="M5.77734 6.69434H10.7773" stroke="#273C50" stroke-width="1.5" stroke-linecap="round"/>
<path d="M5.77734 9.64526H8.77734" stroke="#273C50" stroke-width="1.5" stroke-linecap="round"/>
</svg>
