<svg width="16" height="16" viewBox="0 0 16 16" fill="none" xmlns="http://www.w3.org/2000/svg">
<path d="M8 4V8.5" stroke="#273C50" stroke-width="1.5" stroke-linecap="round"/>
<path d="M8.41142 11.0001C8.41142 11.2276 8.22707 11.4119 7.99966 11.4119C7.77224 11.4119 7.58789 11.2276 7.58789 11.0001C7.58789 10.7727 7.77224 10.5884 7.99966 10.5884C8.22707 10.5884 8.41142 10.7727 8.41142 11.0001Z" fill="#273C50" stroke="#273C50" stroke-width="1.5"/>
<path d="M1 11.4172V4.58284C1 4.5298 1.02107 4.47893 1.05858 4.44142L4.44142 1.05858C4.47893 1.02107 4.5298 1 4.58284 1H11.4172C11.4702 1 11.5211 1.02107 11.5586 1.05858L14.9414 4.44142C14.9789 4.47893 15 4.5298 15 4.58284V11.4172C15 11.4702 14.9789 11.5211 14.9414 11.5586L11.5586 14.9414C11.5211 14.9789 11.4702 15 11.4172 15H4.58284C4.5298 15 4.47893 14.9789 4.44142 14.9414L1.05858 11.5586C1.02107 11.5211 1 11.4702 1 11.4172Z" stroke="#273C50" stroke-width="1.5" stroke-linecap="round"/>
</svg>
