<svg width="20" height="20" viewBox="0 0 20 20" fill="none" xmlns="http://www.w3.org/2000/svg">
<path d="M7.55739 1.44945C8.63282 -0.483151 11.3672 -0.483151 12.4426 1.44945C13.02 2.48709 14.1693 3.0507 15.326 2.86345C17.4804 2.51468 19.1852 4.69162 18.3719 6.75277C17.9352 7.85943 18.2191 9.12586 19.0841 9.92999C20.695 11.4277 20.0866 14.1423 17.997 14.7799C16.8751 15.1222 16.0797 16.1378 16.0016 17.3278C15.8561 19.5442 13.3926 20.7523 11.6002 19.4862C10.6378 18.8065 9.36218 18.8065 8.39982 19.4862C6.60744 20.7523 4.14386 19.5442 3.99839 17.3278C3.92028 16.1378 3.12493 15.1222 2.003 14.7799C-0.0865873 14.1423 -0.695042 11.4277 0.915937 9.92999C1.78089 9.12586 2.06475 7.85943 1.62808 6.75277C0.814789 4.69162 2.51964 2.51468 4.67397 2.86345C5.83066 3.0507 6.97998 2.48709 7.55739 1.44945Z" fill="#196BDF"/>
<path d="M13.9213 10.3695C13.9213 12.5748 12.1657 14.3625 10.0001 14.3625C7.83445 14.3625 6.07886 12.5748 6.07886 10.3695C6.07886 8.16422 7.83445 6.3765 10.0001 6.3765C12.1657 6.3765 13.9213 8.16422 13.9213 10.3695Z" fill="white"/>
</svg>
