<svg width="16" height="16" viewBox="0 0 16 16" fill="none" xmlns="http://www.w3.org/2000/svg">
<path d="M1 7.81154C1 6.62712 1 6.03491 1.27446 5.51435C1.54892 4.99379 2.06437 4.60838 3.09525 3.83757L4.09525 3.08985C5.95857 1.69662 6.89023 1 8 1C9.10977 1 10.0414 1.69662 11.9047 3.08985L12.9047 3.83757C13.9356 4.60838 14.4511 4.99379 14.7255 5.51435C15 6.03491 15 6.62712 15 7.81154V11.5106C15 13.1555 15 13.9779 14.4142 14.4889C13.8284 14.9999 12.8856 14.9999 11 14.9999H5C3.11438 14.9999 2.17157 14.9999 1.58579 14.4889C1 13.9779 1 13.1555 1 11.5106V7.81154Z" stroke="#273C50" stroke-width="1.5"/>
<path d="M10.5 14.9999V10.7659C10.5 10.2136 10.0523 9.76587 9.5 9.76587H6.5C5.94772 9.76587 5.5 10.2136 5.5 10.7659V14.9999" stroke="#273C50" stroke-width="1.5" stroke-linecap="round" stroke-linejoin="round"/>
</svg>
