<svg width="194" height="40" viewBox="0 0 194 40" fill="none" xmlns="http://www.w3.org/2000/svg">
<g clip-path="url(#clip0_12_2975)">
<path d="M32.4282 23.1872C32.2928 22.9843 30.6685 22.1052 29.4503 21.0908C27.5553 19.5354 26.8108 18.3858 26.8108 18.3858C26.8108 18.3858 26.6754 16.898 26.6077 15.0721C27.2846 13.111 27.826 11.7585 27.826 11.7585L31.2776 12.029C31.413 12.029 31.4807 12.029 31.5483 11.9613L31.9544 11.6232C32.0221 11.5556 32.0898 11.4203 32.0898 11.3527L32.2251 10.2031C32.2251 10.1354 32.1575 10.1354 32.1575 10.2031L31.3453 11.2851C30.2624 11.1498 29.1796 9.72969 28.9088 8.44479C28.9088 8.37717 28.9088 8.30954 28.9765 8.24191C29.0442 8.17429 29.1796 8.24192 29.2472 8.30954C29.8563 9.66206 30.1947 9.93256 30.1947 9.93256C30.4655 9.79731 30.6008 9.72969 30.7362 9.59444C30.8039 9.52681 30.9392 9.59443 30.8716 9.72969C30.8039 9.86494 30.7362 10.1354 30.6008 10.3383C30.8039 10.6088 31.1423 10.7441 31.1423 10.7441L31.5483 10.2031C31.21 9.59443 31.1423 9.12105 31.1423 7.97141C31.413 6.88939 31.7514 6.14551 32.1575 5.67213L32.0898 5.19875C31.8191 5.13113 31.4807 5.26638 31.4807 5.26638C31.4807 5.53687 31.4807 5.80738 31.4807 5.94263C31.4807 6.01026 31.3453 6.07788 31.2776 6.01026C31.1423 5.875 31.0069 5.67213 30.8716 5.53687C30.4655 5.73975 29.6533 6.88939 29.3149 7.22752C29.2472 7.29515 29.1119 7.29515 29.0442 7.22752C28.9765 7.1599 28.9765 7.02465 28.9765 6.95702C29.2472 6.61889 30.0594 5.53688 30.8039 5.0635C31.7514 4.45487 32.6312 4.72537 32.6312 4.72537L32.8342 6.14551C32.8342 6.21313 32.9696 6.21313 32.9696 6.14551L33.308 4.793C33.3757 4.65774 33.3757 4.45487 33.3757 4.31961C33.3757 4.04911 33.308 3.77861 33.1726 3.57573L32.9019 3.10235L32.6989 2.69659C32.6989 2.56134 32.5635 2.49372 32.4959 2.49372L32.2928 2.42609C32.2251 2.35847 32.0898 2.35847 31.9544 2.42609L29.3826 3.71098C29.3149 3.77861 29.2472 3.84624 29.1796 3.91386L28.4351 4.86062C28.3674 4.92825 28.3674 4.92825 28.2997 4.86062L28.1644 4.65774C28.1644 4.59012 28.1644 4.59012 28.1644 4.59012L28.5028 4.04911C28.5705 3.98148 28.5705 3.91386 28.5028 3.84624C28.4351 3.77861 28.2321 3.71098 27.9613 3.64336L27.7583 3.50811C27.7583 3.50811 27.6906 3.50811 27.6906 3.44048V3.2376C27.6906 3.16997 27.6906 3.16997 27.7583 3.16997C27.7583 3.16997 27.826 3.16997 28.029 3.10235C28.7058 3.03472 29.1119 3.2376 29.1119 3.2376L29.8563 2.89947C29.8563 2.89947 29.0442 2.15559 28.8412 2.15559C28.029 2.08796 25.7279 2.15559 24.9834 2.29084C24.8481 2.29084 24.645 2.35847 24.442 2.49372C24.0359 2.83184 23.2238 3.50811 22.8854 3.84624C22.8177 3.91386 22.6823 3.91386 22.6823 3.84624C22.6147 3.77861 22.6147 3.71098 22.6823 3.64336C22.8854 3.37285 23.1561 3.10235 23.5622 2.62897C23.6298 2.56134 23.5622 2.49372 23.5622 2.49372C23.2238 2.29084 22.8854 2.15559 22.75 2.08796C22.4793 1.95271 21.1257 2.08796 20.9903 2.42609C20.7873 2.9671 20.9903 3.98149 21.1257 4.45487C21.1257 4.45487 20.0428 5.53687 19.0953 6.07788C18.6893 6.28076 17.2003 5.73975 16.1851 6.48364C15.2376 7.22752 13.681 8.44479 13.1395 8.91818C13.0042 9.05343 12.8688 9.25631 12.8688 9.45918L12.4627 12.2995C12.4627 12.5024 12.1243 12.5024 12.0567 12.2995C11.989 11.7585 11.8536 11.1498 11.7859 10.7441C11.7859 10.6088 11.6506 10.5412 11.5152 10.6088C10.1616 11.3527 5.15334 13.9901 2.58153 16.4246C1.29562 17.6419 0.0773846 22.9167 0.00970521 23.8635C-0.193333 26.9067 2.85225 34.4131 3.25832 35.8333C3.25832 35.9685 3.39368 36.0361 3.52904 36.0361H8.67268C8.80805 36.0361 8.94338 35.9009 8.94338 35.7656C8.87572 35.2922 8.67268 34.4131 8.60501 34.2102C8.40194 33.9397 6.9807 32.5196 6.9807 32.5196L8.46965 27.5153L12.3951 26.3657C12.4627 29.0707 12.7335 32.2491 12.8011 32.6548C12.8688 32.993 14.4254 35.9685 14.4254 35.9685H20.6519C20.855 35.9685 20.9227 35.7656 20.9227 35.6304C20.7196 35.0217 20.2459 33.6692 19.9752 33.534C19.6368 33.3311 17.1326 32.5872 17.1326 32.5872C17.1326 32.5872 17.3356 31.5728 17.674 30.3555C18.5539 27.0419 19.9752 22.7138 19.9752 22.7138C19.9752 22.7138 22.2086 20.4146 22.4793 20.1441C22.6823 19.8736 23.0207 20.2117 22.8854 20.4146C22.1409 21.5642 21.1257 22.9167 21.1257 22.9167C21.1257 22.9167 22.1409 24.134 22.4116 24.2016C22.6147 24.2692 26.6077 24.7426 29.2472 25.0131C30.1271 26.4333 30.8039 27.38 31.2776 27.6505C31.4807 27.7858 33.3757 28.0563 34.1202 28.1915C34.3232 28.1915 34.5262 28.1239 34.5939 27.9887L35 27.5153C34.9323 27.6505 32.6312 23.3901 32.4282 23.1872Z" fill="#0C225A"/>
<path d="M155.752 23.0358H141.154V15.1004C141.154 14.5291 141.653 14.0212 142.215 14.0212H156.812V22.02C156.874 22.5914 156.375 23.0358 155.752 23.0358ZM158.808 8.68872H144.897C144.024 8.68872 143.213 9.06962 142.589 9.70444L136.85 15.6718C136.288 16.3066 135.914 17.1319 135.914 17.9572V34.7165C135.914 35.0339 136.164 35.2244 136.413 35.2244H140.593C140.905 35.2244 141.092 34.9705 141.092 34.7165V28.0509H151.884C152.445 28.0509 152.944 27.7969 153.381 27.416L155.876 24.8767C156.188 24.5593 156.812 24.7498 156.812 25.2576V34.653C156.812 34.9705 157.062 35.1609 157.311 35.1609H161.491C161.803 35.1609 161.99 34.907 161.99 34.653V11.9263C162.052 10.1488 160.617 8.68872 158.808 8.68872Z" fill="#0C225A"/>
<path d="M95.3667 15.037V28.8127C95.3667 29.384 94.9301 29.8919 94.3062 29.8919H80.7693C80.2079 29.8919 79.7088 29.4475 79.7088 28.8127V15.037C79.7088 14.4656 80.1455 13.9578 80.7693 13.9578H94.3062C94.9301 14.0212 95.3667 14.4656 95.3667 15.037ZM94.5558 8.68872H83.3894C82.5784 8.68872 81.7674 9.00613 81.1436 9.64096L75.4669 15.2274C74.843 15.8622 74.4688 16.6875 74.4688 17.5763V29.0666C74.4688 29.6379 74.7183 30.1458 75.0926 30.5902L79.085 34.653C79.4593 35.0339 80.0208 35.2879 80.5822 35.2879H91.6862C92.5595 35.2879 93.3705 34.9705 93.9319 34.3356L99.6087 28.5587C100.233 27.9239 100.544 27.0986 100.544 26.2734V14.8465C100.544 14.2752 100.295 13.7673 99.9206 13.3229L95.9282 9.26006C95.6162 8.87917 95.1172 8.68872 94.5558 8.68872Z" fill="#0C225A"/>
<path d="M72.6587 8.68872H47.5811C47.2692 8.68872 47.082 8.94265 47.082 9.19658V13.1325C47.082 13.4499 47.3316 13.6404 47.5811 13.6404H57.4998V34.653C57.4998 34.9704 57.7494 35.1609 57.9989 35.1609H62.1785C62.4904 35.1609 62.6775 34.907 62.6775 34.653V13.6404H72.5963C72.9082 13.6404 73.0953 13.3864 73.0953 13.1325V9.19658C73.1577 8.94265 72.9082 8.68872 72.6587 8.68872Z" fill="#0C225A"/>
<path d="M187.941 21.9566C187.941 22.5279 187.504 23.0358 186.88 23.0358H172.283V15.037C172.283 14.4656 172.72 13.9578 173.343 13.9578H187.941V21.9566ZM193.119 11.8628C193.119 10.0853 191.746 8.68872 189.999 8.68872H173.094C172.532 8.68872 172.033 8.94265 171.597 9.32355L167.604 13.3864C167.23 13.7673 166.98 14.3387 166.98 14.91V34.7165C166.98 35.0339 167.23 35.2244 167.48 35.2244H171.659C171.971 35.2244 172.158 34.9705 172.158 34.7165V28.0509H184.635C185.321 28.0509 185.945 27.7969 186.381 27.2891L192.432 21.0043C192.807 20.6234 193.056 20.0521 193.056 19.4807L193.119 11.8628Z" fill="#0C225A"/>
<path d="M130.798 8.68872H126.618C126.306 8.68872 126.119 8.94265 126.119 9.19658V19.5442H115.327C114.765 19.5442 114.266 19.7981 113.83 20.179L111.397 22.3374C111.085 22.6549 110.523 22.4644 110.523 21.9566V9.19658C110.523 8.87917 110.274 8.68872 110.024 8.68872H105.845C105.533 8.68872 105.346 8.94265 105.346 9.19658V34.653C105.346 34.9705 105.595 35.1609 105.845 35.1609H110.024C110.336 35.1609 110.523 34.907 110.523 34.653V24.6228H126.119V34.7165C126.119 35.0339 126.368 35.2244 126.618 35.2244H130.798C131.109 35.2244 131.297 34.9705 131.297 34.7165V9.19658C131.297 8.94265 131.047 8.68872 130.798 8.68872Z" fill="#0C225A"/>
</g>
<defs>
<clipPath id="clip0_12_2975">
<rect width="194" height="40" fill="white"/>
</clipPath>
</defs>
</svg>
