<svg width="16" height="16" viewBox="0 0 16 16" fill="none" xmlns="http://www.w3.org/2000/svg">
<path d="M2.7048 4.77121L1.02302 14.8619C1.01174 14.9296 1.07041 14.9883 1.1381 14.977L11.2288 13.2952C11.264 13.2893 11.2934 13.2651 11.306 13.2317L12.9774 8.77458C12.9912 8.73786 12.9822 8.69648 12.9545 8.66875L7.33125 3.04553C7.30352 3.0178 7.26214 3.00884 7.22542 3.02261L2.76832 4.69402C2.73488 4.70656 2.71067 4.73599 2.7048 4.77121Z" stroke="#273C50" stroke-width="1.5" stroke-linecap="round"/>
<path d="M1 15L5.5 10.5" stroke="#273C50" stroke-width="1.5" stroke-linecap="round"/>
<path d="M7.5 3L9.4989 1.07002C9.53886 1.03144 9.60261 1.03282 9.64086 1.07309L14.929 6.63951C14.9678 6.68043 14.9652 6.74539 14.9231 6.78298L13 8.5" stroke="#273C50" stroke-width="1.5" stroke-linecap="round"/>
<circle cx="7" cy="9" r="2" stroke="#273C50" stroke-width="1.5"/>
</svg>
