<svg width="20" height="16" viewBox="0 0 20 16" fill="none" xmlns="http://www.w3.org/2000/svg">
<path d="M1 4H10M19 4H16" stroke="#041221" stroke-width="1.5" stroke-linecap="square"/>
<path d="M19 12L10.5 12M1 12H3.7" stroke="#041221" stroke-width="1.5" stroke-linecap="square"/>
<path d="M13 7C14.6569 7 16 5.65685 16 4C16 2.34315 14.6569 1 13 1C11.3431 1 10 2.34315 10 4C10 5.65685 11.3431 7 13 7Z" stroke="#041221" stroke-width="1.5" stroke-linecap="square"/>
<path d="M7 15C5.34315 15 4 13.6569 4 12C4 10.3431 5.34315 9 7 9C8.65685 9 10 10.3431 10 12C10 13.6569 8.65685 15 7 15Z" stroke="#041221" stroke-width="1.5" stroke-linecap="square"/>
</svg>
