<svg width="16" height="18" viewBox="0 0 16 18" fill="none" xmlns="http://www.w3.org/2000/svg">
<path d="M14.9999 11.8186C14.9942 12.5272 14.6131 13.1476 14 13.5029L9 16.4374C8.38395 16.7943 7.61888 16.7902 7 16.4381L2.01258 13.6488C1.38153 13.2898 0.994135 12.6175 1.00007 11.8916L1.00007 6.20143C1.00586 5.49288 1.38691 4.8581 2 4.50287L7 1.56089C7.61605 1.20395 8.44595 1.21161 9.06484 1.56362L14 4.50014C14.631 4.85907 15.0059 5.45964 14.9999 6.1856V11.8186Z" stroke="#196BDF" stroke-width="1.5"/>
<path fill-rule="evenodd" clip-rule="evenodd" d="M8 12.0061C9.65685 12.0061 11 10.663 11 9.0061C11 7.34925 9.65685 6.0061 8 6.0061C6.34315 6.0061 5 7.34925 5 9.0061C5 10.663 6.34315 12.0061 8 12.0061Z" stroke="#196BDF" stroke-width="1.5"/>
</svg>
