<svg width="16" height="16" viewBox="0 0 16 16" fill="none" xmlns="http://www.w3.org/2000/svg">
<path d="M8.18158 1.38617C8.10927 1.2328 7.89091 1.23335 7.81936 1.38707L5.90518 5.49986C5.87693 5.56055 5.8202 5.60308 5.75403 5.61318L1.38388 6.28023C1.22313 6.30477 1.1573 6.5007 1.27062 6.61732L4.45012 9.88933C4.49444 9.93494 4.51443 9.99892 4.50395 10.0617L3.74779 14.5884C3.72013 14.754 3.89651 14.878 4.04293 14.7958L7.90164 12.6304C7.96243 12.5963 8.03659 12.5963 8.09738 12.6304L11.9576 14.7962C12.1039 14.8783 12.2802 14.7545 12.2527 14.589L11.502 10.0614C11.4916 9.99882 11.5116 9.935 11.5558 9.88945L14.7302 6.61697C14.8433 6.50037 14.7776 6.30468 14.617 6.28004L10.2721 5.61315C10.2064 5.60306 10.1499 5.56093 10.1216 5.50076L8.18158 1.38617Z" stroke="#273C50" stroke-width="1.5" stroke-linejoin="round"/>
</svg>
